<?xml version="1.0" encoding="UTF-8" standalone="no"?>
<!DOCTYPE svg PUBLIC "-//W3C//DTD SVG 1.1//EN"
 "http://www.w3.org/Graphics/SVG/1.1/DTD/svg11.dtd">
<!-- Generated by graphviz version 14.1.2 (20260124.0452)
 -->
<!-- Title: methodology Pages: 1 -->
<svg width="744pt" height="703pt"
 viewBox="0.00 0.00 744.00 703.00" xmlns="http://www.w3.org/2000/svg" xmlns:xlink="http://www.w3.org/1999/xlink">
<g id="graph0" class="graph" transform="scale(1 1) rotate(0) translate(18 685.35)">
<title>methodology</title>
<polygon fill="white" stroke="none" points="-18,18 -18,-685.35 726.45,-685.35 726.45,18 -18,18"/>
<g id="clust1" class="cluster">
<title>cluster_train</title>
<path fill="#fbf4ff" stroke="#8e44ad" stroke-width="1.5" stroke-dasharray="5,2" d="M20,-148C20,-148 362,-148 362,-148 368,-148 374,-154 374,-160 374,-160 374,-360.49 374,-360.49 374,-366.49 368,-372.49 362,-372.49 362,-372.49 20,-372.49 20,-372.49 14,-372.49 8,-366.49 8,-360.49 8,-360.49 8,-160 8,-160 8,-154 14,-148 20,-148"/>
<text xml:space="preserve" text-anchor="middle" x="191" y="-358.04" font-family="Helvetica,sans-Serif" font-size="11.00">Model Training &amp; Selection</text>
</g>
<!-- dataset -->
<g id="node1" class="node">
<title>dataset</title>
<path fill="#bbdefb" stroke="#1f6fb2" stroke-width="1.3" d="M490.64,-663.09C490.64,-665.44 450.02,-667.35 400,-667.35 349.98,-667.35 309.36,-665.44 309.36,-663.09 309.36,-663.09 309.36,-624.75 309.36,-624.75 309.36,-622.4 349.98,-620.49 400,-620.49 450.02,-620.49 490.64,-622.4 490.64,-624.75 490.64,-624.75 490.64,-663.09 490.64,-663.09"/>
<path fill="none" stroke="#1f6fb2" stroke-width="1.3" d="M490.64,-663.09C490.64,-660.74 450.02,-658.83 400,-658.83 349.98,-658.83 309.36,-660.74 309.36,-663.09"/>
<text xml:space="preserve" text-anchor="middle" x="400" y="-645.47" font-family="Helvetica,sans-Serif" font-size="11.00">CIC&#45;IoT&#45;2023 Dataset</text>
<text xml:space="preserve" text-anchor="middle" x="400" y="-633.47" font-family="Helvetica,sans-Serif" font-size="11.00">39 features · 34 attacks + Benign</text>
</g>
<!-- clean -->
<g id="node2" class="node">
<title>clean</title>
<path fill="#abebc6" stroke="#2e8b57" stroke-width="1.3" d="M525.52,-596.49C525.52,-596.49 274.48,-596.49 274.48,-596.49 268.48,-596.49 262.48,-590.49 262.48,-584.49 262.48,-584.49 262.48,-572.49 262.48,-572.49 262.48,-566.49 268.48,-560.49 274.48,-560.49 274.48,-560.49 525.52,-560.49 525.52,-560.49 531.52,-560.49 537.52,-566.49 537.52,-572.49 537.52,-572.49 537.52,-584.49 537.52,-584.49 537.52,-590.49 531.52,-596.49 525.52,-596.49"/>
<text xml:space="preserve" text-anchor="middle" x="400" y="-580.04" font-family="Helvetica,sans-Serif" font-size="11.00">Cleaning · Exact Deduplication · Per&#45;Class Sampling</text>
<text xml:space="preserve" text-anchor="middle" x="400" y="-568.04" font-family="Helvetica,sans-Serif" font-size="11.00">(unique on all features · seeded · 200k cap)</text>
</g>
<!-- dataset&#45;&gt;clean -->
<g id="edge5" class="edge">
<title>dataset&#45;&gt;clean</title>
<path fill="none" stroke="#555555" d="M400,-619.93C400,-619.93 400,-606.46 400,-606.46"/>
<polygon fill="#555555" stroke="#555555" points="402.8,-606.46 400,-598.46 397.2,-606.46 402.8,-606.46"/>
</g>
<!-- prep -->
<g id="node3" class="node">
<title>prep</title>
<path fill="#abebc6" stroke="#2e8b57" stroke-width="1.3" d="M487.64,-536.49C487.64,-536.49 312.36,-536.49 312.36,-536.49 306.36,-536.49 300.36,-530.49 300.36,-524.49 300.36,-524.49 300.36,-512.49 300.36,-512.49 300.36,-506.49 306.36,-500.49 312.36,-500.49 312.36,-500.49 487.64,-500.49 487.64,-500.49 493.64,-500.49 499.64,-506.49 499.64,-512.49 499.64,-512.49 499.64,-524.49 499.64,-524.49 499.64,-530.49 493.64,-536.49 487.64,-536.49"/>
<text xml:space="preserve" text-anchor="middle" x="400" y="-520.04" font-family="Helvetica,sans-Serif" font-size="11.00">Feature Preprocessing</text>
<text xml:space="preserve" text-anchor="middle" x="400" y="-508.04" font-family="Helvetica,sans-Serif" font-size="11.00">log1p · RobustScaler · LabelEncoder</text>
</g>
<!-- clean&#45;&gt;prep -->
<g id="edge6" class="edge">
<title>clean&#45;&gt;prep</title>
<path fill="none" stroke="#555555" d="M400,-560.16C400,-560.16 400,-546.63 400,-546.63"/>
<polygon fill="#555555" stroke="#555555" points="402.8,-546.63 400,-538.63 397.2,-546.63 402.8,-546.63"/>
</g>
<!-- split -->
<g id="node4" class="node">
<title>split</title>
<path fill="#7dcea0" stroke="#1e8449" stroke-width="1.3" d="M537.69,-476.49C537.69,-476.49 262.31,-476.49 262.31,-476.49 256.31,-476.49 244.63,-474.57 238.94,-472.65 238.94,-472.65 155.06,-444.33 155.06,-444.33 149.38,-442.41 149.69,-440.49 155.69,-440.49 155.69,-440.49 644.31,-440.49 644.31,-440.49 650.31,-440.49 650.62,-442.41 644.94,-444.33 644.94,-444.33 561.06,-472.65 561.06,-472.65 555.37,-474.57 543.69,-476.49 537.69,-476.49"/>
<text xml:space="preserve" text-anchor="middle" x="400" y="-454.04" font-family="Helvetica,sans-Serif" font-size="11.00">Split Strategy &#160;&#160;Random · Per&#45;CSV (GroupShuffleSplit)</text>
</g>
<!-- prep&#45;&gt;split -->
<g id="edge7" class="edge">
<title>prep&#45;&gt;split</title>
<path fill="none" stroke="#555555" d="M400,-500.16C400,-500.16 400,-486.63 400,-486.63"/>
<polygon fill="#555555" stroke="#555555" points="402.8,-486.63 400,-478.63 397.2,-486.63 402.8,-486.63"/>
</g>
<!-- train -->
<g id="node5" class="node">
<title>train</title>
<path fill="#d5f5e3" stroke="#2e8b57" stroke-width="1.3" d="M270.77,-416.49C270.77,-416.49 213.23,-416.49 213.23,-416.49 207.23,-416.49 201.23,-410.49 201.23,-404.49 201.23,-404.49 201.23,-392.49 201.23,-392.49 201.23,-386.49 207.23,-380.49 213.23,-380.49 213.23,-380.49 270.77,-380.49 270.77,-380.49 276.77,-380.49 282.77,-386.49 282.77,-392.49 282.77,-392.49 282.77,-404.49 282.77,-404.49 282.77,-410.49 276.77,-416.49 270.77,-416.49"/>
<text xml:space="preserve" text-anchor="middle" x="242" y="-400.04" font-family="Helvetica,sans-Serif" font-size="11.00">Training Set</text>
<text xml:space="preserve" text-anchor="middle" x="242" y="-388.04" font-family="Helvetica,sans-Serif" font-size="11.00">70%</text>
</g>
<!-- split&#45;&gt;train -->
<g id="edge8" class="edge">
<title>split&#45;&gt;train</title>
<path fill="none" stroke="#555555" d="M242,-440.16C242,-440.16 242,-426.63 242,-426.63"/>
<polygon fill="#555555" stroke="#555555" points="244.8,-426.63 242,-418.63 239.2,-426.63 244.8,-426.63"/>
</g>
<!-- val -->
<g id="node6" class="node">
<title>val</title>
<path fill="#d5f5e3" stroke="#2e8b57" stroke-width="1.3" d="M432.52,-416.49C432.52,-416.49 367.48,-416.49 367.48,-416.49 361.48,-416.49 355.48,-410.49 355.48,-404.49 355.48,-404.49 355.48,-392.49 355.48,-392.49 355.48,-386.49 361.48,-380.49 367.48,-380.49 367.48,-380.49 432.52,-380.49 432.52,-380.49 438.52,-380.49 444.52,-386.49 444.52,-392.49 444.52,-392.49 444.52,-404.49 444.52,-404.49 444.52,-410.49 438.52,-416.49 432.52,-416.49"/>
<text xml:space="preserve" text-anchor="middle" x="400" y="-400.04" font-family="Helvetica,sans-Serif" font-size="11.00">Validation Set</text>
<text xml:space="preserve" text-anchor="middle" x="400" y="-388.04" font-family="Helvetica,sans-Serif" font-size="11.00">15%</text>
</g>
<!-- split&#45;&gt;val -->
<g id="edge9" class="edge">
<title>split&#45;&gt;val</title>
<path fill="none" stroke="#555555" d="M400,-440.16C400,-440.16 400,-426.63 400,-426.63"/>
<polygon fill="#555555" stroke="#555555" points="402.8,-426.63 400,-418.63 397.2,-426.63 402.8,-426.63"/>
</g>
<!-- test -->
<g id="node7" class="node">
<title>test</title>
<path fill="#d5f5e3" stroke="#2e8b57" stroke-width="1.3" d="M524.02,-416.49C524.02,-416.49 485.98,-416.49 485.98,-416.49 479.98,-416.49 473.98,-410.49 473.98,-404.49 473.98,-404.49 473.98,-392.49 473.98,-392.49 473.98,-386.49 479.98,-380.49 485.98,-380.49 485.98,-380.49 524.02,-380.49 524.02,-380.49 530.02,-380.49 536.02,-386.49 536.02,-392.49 536.02,-392.49 536.02,-404.49 536.02,-404.49 536.02,-410.49 530.02,-416.49 524.02,-416.49"/>
<text xml:space="preserve" text-anchor="middle" x="505" y="-400.04" font-family="Helvetica,sans-Serif" font-size="11.00">Test Set</text>
<text xml:space="preserve" text-anchor="middle" x="505" y="-388.04" font-family="Helvetica,sans-Serif" font-size="11.00">15%</text>
</g>
<!-- split&#45;&gt;test -->
<g id="edge10" class="edge">
<title>split&#45;&gt;test</title>
<path fill="none" stroke="#555555" d="M505,-440.16C505,-440.16 505,-426.63 505,-426.63"/>
<polygon fill="#555555" stroke="#555555" points="507.8,-426.63 505,-418.63 502.2,-426.63 507.8,-426.63"/>
</g>
<!-- cw -->
<g id="node8" class="node">
<title>cw</title>
<path fill="#fcf3cf" stroke="#b7950b" stroke-width="1.3" d="M280.93,-344.49C280.93,-344.49 101.07,-344.49 101.07,-344.49 95.07,-344.49 84.69,-340.38 80.32,-336.28 80.32,-336.28 25.21,-284.54 25.21,-284.54 20.83,-280.44 22.46,-276.33 28.46,-276.33 28.46,-276.33 353.54,-276.33 353.54,-276.33 359.54,-276.33 361.17,-280.44 356.79,-284.54 356.79,-284.54 301.68,-336.28 301.68,-336.28 297.31,-340.38 286.93,-344.49 280.93,-344.49"/>
<text xml:space="preserve" text-anchor="middle" x="191" y="-311.96" font-family="Helvetica,sans-Serif" font-size="11.00">Class&#45;Weighted Cross&#45;Entropy</text>
<text xml:space="preserve" text-anchor="middle" x="191" y="-299.96" font-family="Helvetica,sans-Serif" font-size="11.00">(no SMOTE / no synthetic data)</text>
</g>
<!-- train&#45;&gt;cw -->
<g id="edge11" class="edge">
<title>train&#45;&gt;cw</title>
<path fill="none" stroke="#555555" d="M242,-380.24C242,-380.24 242,-354.53 242,-354.53"/>
<polygon fill="#555555" stroke="#555555" points="244.8,-354.53 242,-346.53 239.2,-354.53 244.8,-354.53"/>
</g>
<!-- models -->
<g id="node11" class="node">
<title>models</title>
<path fill="#f5cba7" stroke="#ca6f1e" stroke-width="1.3" d="M327.64,-192C327.64,-192 254.36,-192 254.36,-192 248.36,-192 242.36,-186 242.36,-180 242.36,-180 242.36,-168 242.36,-168 242.36,-162 248.36,-156 254.36,-156 254.36,-156 327.64,-156 327.64,-156 333.64,-156 339.64,-162 339.64,-168 339.64,-168 339.64,-180 339.64,-180 339.64,-186 333.64,-192 327.64,-192"/>
<text xml:space="preserve" text-anchor="middle" x="291" y="-169.55" font-family="Helvetica,sans-Serif" font-size="11.00">Trained Models</text>
</g>
<!-- val&#45;&gt;models -->
<g id="edge12" class="edge">
<title>val&#45;&gt;models</title>
<path fill="none" stroke="#555555" stroke-dasharray="5,2" d="M405.03,-380.12C405.03,-326.5 405.03,-174 405.03,-174 405.03,-174 349.53,-174 349.53,-174"/>
<polygon fill="#555555" stroke="#555555" points="349.53,-171.2 341.53,-174 349.53,-176.8 349.53,-171.2"/>
</g>
<!-- eval -->
<g id="node12" class="node">
<title>eval</title>
<path fill="#f9e79f" stroke="#b7950b" stroke-width="1.3" d="M510.22,-129.73C510.22,-129.73 347.33,-98.27 347.33,-98.27 341.44,-97.14 341.44,-94.86 347.33,-93.73 347.33,-93.73 510.22,-62.27 510.22,-62.27 516.11,-61.14 527.89,-61.14 533.78,-62.27 533.78,-62.27 696.67,-93.73 696.67,-93.73 702.56,-94.86 702.56,-97.14 696.67,-98.27 696.67,-98.27 533.78,-129.73 533.78,-129.73 527.89,-130.86 516.11,-130.86 510.22,-129.73"/>
<text xml:space="preserve" text-anchor="middle" x="522" y="-103.55" font-family="Helvetica,sans-Serif" font-size="11.00">Evaluation &amp; Benchmark</text>
<text xml:space="preserve" text-anchor="middle" x="522" y="-91.55" font-family="Helvetica,sans-Serif" font-size="11.00">2&#45;/8&#45;/34&#45;class · macro&#45;F1 · confusion</text>
<text xml:space="preserve" text-anchor="middle" x="522" y="-79.55" font-family="Helvetica,sans-Serif" font-size="11.00">latency p50/p95/p99 @ batch 1–1024</text>
</g>
<!-- test&#45;&gt;eval -->
<g id="edge14" class="edge">
<title>test&#45;&gt;eval</title>
<path fill="none" stroke="#555555" d="M505,-380.02C505,-380.02 505,-138.66 505,-138.66"/>
<polygon fill="#555555" stroke="#555555" points="507.8,-138.66 505,-130.66 502.2,-138.66 507.8,-138.66"/>
</g>
<!-- mlp -->
<g id="node9" class="node">
<title>mlp</title>
<path fill="#fad7a0" stroke="#ca6f1e" stroke-width="1.3" d="M209.64,-252.33C209.64,-252.33 52.36,-252.33 52.36,-252.33 46.36,-252.33 40.36,-246.33 40.36,-240.33 40.36,-240.33 40.36,-228 40.36,-228 40.36,-222 46.36,-216 52.36,-216 52.36,-216 209.64,-216 209.64,-216 215.64,-216 221.64,-222 221.64,-228 221.64,-228 221.64,-240.33 221.64,-240.33 221.64,-246.33 215.64,-252.33 209.64,-252.33"/>
<text xml:space="preserve" text-anchor="middle" x="131" y="-236.84" font-family="Helvetica,sans-Serif" font-size="11.00">PyTorch MLP</text>
<text xml:space="preserve" text-anchor="middle" x="131" y="-224.84" font-family="Helvetica,sans-Serif" font-size="11.00">25→128→64→n · BN + Dropout</text>
</g>
<!-- cw&#45;&gt;mlp -->
<g id="edge1" class="edge">
<title>cw&#45;&gt;mlp</title>
<path fill="none" stroke="#555555" d="M131,-275.86C131,-275.86 131,-262.48 131,-262.48"/>
<polygon fill="#555555" stroke="#555555" points="133.8,-262.48 131,-254.48 128.2,-262.48 133.8,-262.48"/>
</g>
<!-- rf -->
<g id="node10" class="node">
<title>rf</title>
<path fill="#fad7a0" stroke="#ca6f1e" stroke-width="1.3" d="M330.02,-252.16C330.02,-252.16 255.98,-252.16 255.98,-252.16 249.98,-252.16 243.98,-246.16 243.98,-240.16 243.98,-240.16 243.98,-228.16 243.98,-228.16 243.98,-222.16 249.98,-216.16 255.98,-216.16 255.98,-216.16 330.02,-216.16 330.02,-216.16 336.02,-216.16 342.02,-222.16 342.02,-228.16 342.02,-228.16 342.02,-240.16 342.02,-240.16 342.02,-246.16 336.02,-252.16 330.02,-252.16"/>
<text xml:space="preserve" text-anchor="middle" x="293" y="-229.72" font-family="Helvetica,sans-Serif" font-size="11.00">Random Forest</text>
</g>
<!-- cw&#45;&gt;rf -->
<g id="edge2" class="edge">
<title>cw&#45;&gt;rf</title>
<path fill="none" stroke="#555555" d="M293,-275.86C293,-275.86 293,-262.06 293,-262.06"/>
<polygon fill="#555555" stroke="#555555" points="295.8,-262.06 293,-254.06 290.2,-262.06 295.8,-262.06"/>
</g>
<!-- mlp&#45;&gt;models -->
<g id="edge3" class="edge">
<title>mlp&#45;&gt;models</title>
<path fill="none" stroke="#555555" d="M201.62,-215.46C201.62,-197.8 201.62,-174 201.62,-174 201.62,-174 232.35,-174 232.35,-174"/>
<polygon fill="#555555" stroke="#555555" points="232.35,-176.8 240.35,-174 232.35,-171.2 232.35,-176.8"/>
</g>
<!-- rf&#45;&gt;models -->
<g id="edge4" class="edge">
<title>rf&#45;&gt;models</title>
<path fill="none" stroke="#555555" d="M291.81,-215.79C291.81,-215.79 291.81,-201.78 291.81,-201.78"/>
<polygon fill="#555555" stroke="#555555" points="294.61,-201.78 291.81,-193.78 289.01,-201.78 294.61,-201.78"/>
</g>
<!-- models&#45;&gt;eval -->
<g id="edge13" class="edge">
<title>models&#45;&gt;eval</title>
<path fill="none" stroke="#555555" d="M321.18,-155.59C321.18,-140.98 321.18,-123 321.18,-123 321.18,-123 462.59,-123 462.59,-123"/>
<polygon fill="#555555" stroke="#555555" points="462.59,-125.8 470.59,-123 462.59,-120.2 462.59,-125.8"/>
</g>
<!-- benign -->
<g id="node13" class="node">
<title>benign</title>
<path fill="#f5b7b1" stroke="#a93226" stroke-width="1.3" d="M226.4,-114C226.4,-114 193.6,-114 193.6,-114 187.6,-114 181.6,-108 181.6,-102 181.6,-102 181.6,-90 181.6,-90 181.6,-84 187.6,-78 193.6,-78 193.6,-78 226.4,-78 226.4,-78 232.4,-78 238.4,-84 238.4,-90 238.4,-90 238.4,-102 238.4,-102 238.4,-108 232.4,-114 226.4,-114"/>
<text xml:space="preserve" text-anchor="middle" x="210" y="-91.55" font-family="Helvetica,sans-Serif" font-size="11.00">Benign</text>
</g>
<!-- models&#45;&gt;benign -->
<g id="edge15" class="edge">
<title>models&#45;&gt;benign</title>
<path fill="none" stroke="#555555" stroke-dasharray="5,2" d="M248.24,-155.46C248.24,-134.13 248.24,-102 248.24,-102 248.24,-102 247.31,-102 247.31,-102"/>
<polygon fill="#555555" stroke="#555555" points="248.49,-99.2 240.49,-102 248.49,-104.8 248.49,-99.2"/>
</g>
<!-- attack -->
<g id="node14" class="node">
<title>attack</title>
<path fill="#f1948a" stroke="#a93226" stroke-width="1.3" d="M302,-114C302,-114 272,-114 272,-114 266,-114 260,-108 260,-102 260,-102 260,-90 260,-90 260,-84 266,-78 272,-78 272,-78 302,-78 302,-78 308,-78 314,-84 314,-90 314,-90 314,-102 314,-102 314,-108 308,-114 302,-114"/>
<text xml:space="preserve" text-anchor="middle" x="287" y="-91.55" font-family="Helvetica,sans-Serif" font-size="11.00">Attack</text>
</g>
<!-- models&#45;&gt;attack -->
<g id="edge16" class="edge">
<title>models&#45;&gt;attack</title>
<path fill="none" stroke="#555555" stroke-dasharray="5,2" d="M287,-155.52C287,-155.52 287,-124.14 287,-124.14"/>
<polygon fill="#555555" stroke="#555555" points="289.8,-124.14 287,-116.14 284.2,-124.14 289.8,-124.14"/>
</g>
<!-- ddos -->
<g id="node15" class="node">
<title>ddos</title>
<path fill="#fadbd8" stroke="#a93226" stroke-width="1.3" d="M226,-36C226,-36 196,-36 196,-36 190,-36 184,-30 184,-24 184,-24 184,-12 184,-12 184,-6 190,0 196,0 196,0 226,0 226,0 232,0 238,-6 238,-12 238,-12 238,-24 238,-24 238,-30 232,-36 226,-36"/>
<text xml:space="preserve" text-anchor="middle" x="211" y="-13.55" font-family="Helvetica,sans-Serif" font-size="11.00">DDoS</text>
</g>
<!-- attack&#45;&gt;ddos -->
<g id="edge17" class="edge">
<title>attack&#45;&gt;ddos</title>
<path fill="none" stroke="#555555" d="M259.55,-90C256.3,-90 254.12,-90 254.12,-90 254.12,-90 254.12,-18 254.12,-18 254.12,-18 248.07,-18 248.07,-18"/>
<polygon fill="#555555" stroke="#555555" points="248.07,-15.2 240.07,-18 248.07,-20.8 248.07,-15.2"/>
</g>
<!-- dos -->
<g id="node16" class="node">
<title>dos</title>
<path fill="#fadbd8" stroke="#a93226" stroke-width="1.3" d="M302,-36C302,-36 272,-36 272,-36 266,-36 260,-30 260,-24 260,-24 260,-12 260,-12 260,-6 266,0 272,0 272,0 302,0 302,0 308,0 314,-6 314,-12 314,-12 314,-24 314,-24 314,-30 308,-36 302,-36"/>
<text xml:space="preserve" text-anchor="middle" x="287" y="-13.55" font-family="Helvetica,sans-Serif" font-size="11.00">DoS</text>
</g>
<!-- attack&#45;&gt;dos -->
<g id="edge18" class="edge">
<title>attack&#45;&gt;dos</title>
<path fill="none" stroke="#555555" d="M287,-77.52C287,-77.52 287,-46.14 287,-46.14"/>
<polygon fill="#555555" stroke="#555555" points="289.8,-46.14 287,-38.14 284.2,-46.14 289.8,-46.14"/>
</g>
<!-- more -->
<g id="node17" class="node">
<title>more</title>
<text xml:space="preserve" text-anchor="middle" x="386" y="-12.97" font-family="Helvetica,sans-Serif" font-size="12.00">… &#160;(8 families)</text>
</g>
<!-- attack&#45;&gt;more -->
<g id="edge19" class="edge">
<title>attack&#45;&gt;more</title>
<path fill="none" stroke="#555555" d="M314.36,-96C322.05,-96 328.37,-96 328.37,-96 328.37,-96 328.37,-18 328.37,-18 328.37,-18 329.17,-18 329.17,-18"/>
<polygon fill="#555555" stroke="#555555" points="326.87,-20.8 334.87,-18 326.87,-15.2 326.87,-20.8"/>
</g>
</g>
</svg>
